<?xml version="1.0" standalone="no"?>
<!DOCTYPE svg PUBLIC "-//W3C//DTD SVG 20010904//EN"
 "http://www.w3.org/TR/2001/REC-SVG-20010904/DTD/svg10.dtd">
<svg version="1.0" xmlns="http://www.w3.org/2000/svg"
 width="980.000000pt" height="980.000000pt" viewBox="0 0 980.000000 980.000000"
 preserveAspectRatio="xMidYMid meet">

<g transform="translate(0.000000,980.000000) scale(0.100000,-0.100000)"
fill="#000000" stroke="none">
<path d="M4678 9793 c-49 -2 -88 -7 -88 -11 0 -4 -46 -8 -103 -9 -56 -2 -147
-10 -202 -18 -55 -8 -116 -17 -135 -19 -82 -9 -130 -19 -130 -27 0 -10 21 -12
93 -11 41 1 48 -1 45 -16 -2 -12 -17 -19 -48 -23 -40 -6 -50 -3 -82 23 -37 29
-39 29 -95 18 -32 -7 -63 -17 -70 -22 -7 -5 -16 -7 -21 -4 -5 3 -22 1 -38 -4
l-29 -8 35 -1 c19 0 53 -2 75 -5 39 -5 39 -5 5 3 l-35 8 33 2 c19 0 31 5 27
11 -3 6 1 7 10 4 8 -4 22 -1 31 6 11 10 18 10 26 2 9 -9 6 -12 -13 -13 l-24
-1 25 -9 c19 -7 16 -7 -15 -3 -28 3 -36 2 -26 -5 12 -8 9 -11 -12 -16 -15 -4
-38 -4 -52 -1 -24 6 -25 4 -25 -39 l0 -45 -40 0 -40 0 0 -40 0 -40 -40 0 -40
0 0 -40 0 -40 -40 0 -40 0 0 -40 0 -40 -40 0 -40 0 0 -40 0 -40 -40 0 -40 0 0
-40 0 -40 -40 0 -40 0 0 -40 0 -40 -40 0 -40 0 0 -40 0 -40 -40 0 -40 0 0 -40
0 -40 -40 0 -40 0 0 -40 0 -40 -40 0 -40 0 0 -40 0 -40 -40 0 -40 0 0 -40 0
-40 -40 0 -40 0 0 -40 0 -40 -40 0 -40 0 0 -40 0 -40 -40 0 -40 0 0 -40 0 -40
-40 0 -40 0 0 -40 0 -40 -40 0 -40 0 0 -40 0 -40 -40 0 -40 0 0 -40 0 -40 -40
0 -40 0 0 -40 0 -40 -40 0 -40 0 0 -40 0 -40 -40 0 -40 0 0 -40 0 -40 -40 0
-40 0 0 -40 0 -40 -40 0 -40 0 0 -40 0 -40 -40 0 -40 0 0 -40 0 -40 -40 0 -40
0 0 -40 0 -40 -40 0 -40 0 0 -40 0 -40 -40 0 -40 0 0 -40 0 -40 -40 0 -40 0 0
-40 0 -40 -40 0 -40 0 0 -40 0 -40 -40 0 -40 0 0 -40 0 -40 -40 0 -40 0 0 -40
0 -40 -40 0 -40 0 0 -40 0 -40 -40 0 -40 0 0 -40 0 -40 -40 0 -40 0 0 -40 0
-40 -40 0 -40 0 0 -40 0 -40 -40 0 -40 0 0 -40 0 -40 -40 0 -40 0 0 -40 0 -40
-40 0 -40 0 0 -40 0 -40 -40 0 -40 0 0 -40 0 -40 -40 0 -40 0 0 -40 0 -40 -40
0 -40 0 0 -40 0 -40 -40 0 -40 0 0 -40 0 -40 -40 0 -40 0 0 -40 0 -40 -40 0
-40 0 0 -40 0 -40 -40 0 -40 0 0 -40 0 -40 -40 0 -40 0 0 -40 0 -40 -40 0
c-37 0 -40 -2 -40 -28 0 -16 -7 -51 -15 -78 -18 -59 -18 -57 -4 -48 6 3 3 -6
-7 -21 -15 -23 -15 -28 -3 -35 10 -7 16 -4 21 8 5 14 7 13 7 -6 1 -12 -6 -25
-14 -28 -9 -4 -15 -16 -14 -28 4 -42 -1 -56 -20 -56 -21 0 -26 34 -9 57 6 8 2
15 -11 23 -19 10 -21 8 -23 -22 -1 -18 -1 -48 1 -66 1 -22 -2 -32 -8 -27 -17
10 -13 -34 4 -51 8 -9 15 -23 14 -32 0 -11 -4 -8 -10 8 -14 35 -25 12 -33 -70
-24 -259 -27 -309 -14 -329 10 -17 10 -27 -1 -53 -8 -18 -16 -64 -19 -103 -5
-86 8 -376 17 -371 3 2 4 -16 2 -41 -11 -145 74 -660 161 -973 58 -207 146
-463 157 -456 3 2 7 -8 7 -22 1 -15 20 -70 43 -122 67 -152 253 -520 262 -520
5 0 9 -6 9 -12 0 -14 111 -200 139 -233 9 -11 23 -31 29 -45 11 -21 95 -140
135 -190 7 -9 32 -42 57 -75 146 -194 433 -504 615 -666 181 -159 439 -356
459 -351 6 2 8 0 3 -4 -10 -10 220 -161 393 -258 567 -318 1166 -515 1815
-596 639 -81 1322 -27 1945 151 359 103 812 296 1091 464 51 30 93 55 94 55 5
0 120 73 197 124 120 81 356 260 434 331 6 5 36 30 65 55 57 47 370 357 430
425 204 234 430 544 554 760 31 55 61 105 65 110 19 23 182 360 229 471 208
494 321 955 372 1514 19 202 16 650 -4 858 -29 284 -98 660 -158 858 -12 38
-35 114 -52 169 -143 469 -414 1001 -721 1415 -134 180 -250 319 -264 314 -7
-2 -10 1 -7 6 15 25 -334 373 -555 554 -126 102 -120 98 -160 126 -19 13 -37
27 -40 30 -13 14 -186 134 -285 197 -192 122 -251 154 -271 147 -14 -4 -16 -4
-5 4 10 7 -35 34 -180 105 -266 130 -310 149 -326 143 -8 -3 -12 -2 -9 3 3 4
-49 29 -117 54 -387 143 -729 225 -1172 282 -195 25 -530 37 -777 28z m30 -20
c-10 -2 -28 -2 -40 0 -13 2 -5 4 17 4 22 1 32 -1 23 -4z m507 -13 c-27 -12
-43 -12 -25 0 8 5 22 9 30 9 10 0 8 -3 -5 -9z m-795 -10 c20 -6 21 -8 5 -8
-11 0 -29 3 -40 8 -25 11 1 11 35 0z m93 3 c-7 -2 -19 -2 -25 0 -7 3 -2 5 12
5 14 0 19 -2 13 -5z m-180 -10 c-7 -2 -21 -2 -30 0 -10 3 -4 5 12 5 17 0 24
-2 18 -5z m-48 -13 c18 -8 18 -9 -5 -9 -14 0 -34 4 -45 9 -18 8 -18 9 5 9 14
0 34 -4 45 -9z m222 4 c-3 -3 -12 -4 -19 -1 -8 3 -5 6 6 6 11 1 17 -2 13 -5z
m176 -1 c-7 -2 -21 -2 -30 0 -10 3 -4 5 12 5 17 0 24 -2 18 -5z m-120 -10 c-7
-2 -19 -2 -25 0 -7 3 -2 5 12 5 14 0 19 -2 13 -5z m1662 -2213 c204 -19 393
-57 559 -111 115 -38 316 -136 381 -185 101 -77 182 -180 206 -260 10 -38 15
-42 50 -48 151 -24 300 -163 350 -326 19 -64 19 -94 17 -1610 l-3 -1545 -25
-60 c-54 -127 -154 -226 -278 -274 l-67 -26 -980 -5 -980 -5 -22 -55 c-12 -30
-30 -98 -39 -150 -14 -79 -15 -109 -7 -185 11 -85 44 -205 66 -233 7 -8 48
-12 144 -12 129 0 167 -7 185 -34 13 -20 8 -69 -9 -88 -15 -17 -55 -18 -871
-18 -782 0 -857 1 -874 17 -25 23 -24 77 4 103 20 18 35 20 169 20 l147 0 21
58 c64 173 66 325 4 505 l-26 77 -952 0 c-598 0 -972 4 -1005 10 -164 31 -301
152 -355 314 l-25 75 2 1548 c3 1479 4 1550 21 1593 11 25 19 53 20 62 1 9 5
14 9 12 4 -3 12 5 17 18 5 13 27 43 49 68 21 25 40 49 40 55 0 5 6 11 14 13 9
2 8 0 -2 -7 -8 -6 -10 -11 -4 -11 6 0 21 11 34 25 12 13 25 24 29 23 14 -3 92
40 79 44 -24 8 52 9 1107 14 l1050 4 33 70 c127 273 545 461 1162 523 82 9
454 6 555 -3z m-3940 -620 c-3 -5 -12 -10 -18 -10 -7 0 -6 4 3 10 19 12 23 12
15 0z m-192 -65 c-3 -9 -8 -14 -10 -11 -3 3 -2 9 2 15 9 16 15 13 8 -4z m7
-75 c-6 -11 -13 -20 -16 -20 -2 0 0 9 6 20 6 11 13 20 16 20 2 0 0 -9 -6 -20z
m-2043 -1292 c-2 -13 -4 -5 -4 17 -1 22 1 32 4 23 2 -10 2 -28 0 -40z m0 -80
c-3 -8 -6 -5 -6 6 -1 11 2 17 5 13 3 -3 4 -12 1 -19z m-8 -103 c0 -5 -4 -3 -9
5 -5 8 -9 22 -9 30 0 16 17 -16 18 -35z m-9 -95 c0 -5 -4 -10 -10 -10 -5 0
-10 5 -10 10 0 6 5 10 10 10 6 0 10 -4 10 -10z m1051 -3327 c13 -16 12 -17 -3
-4 -10 7 -18 15 -18 17 0 8 8 3 21 -13z"/>
<path d="M5610 7366 c-496 -58 -864 -218 -965 -420 -33 -65 -33 -136 -2 -192
39 -73 138 -170 160 -157 7 3 9 3 5 -2 -10 -10 14 -27 109 -77 41 -21 82 -37
90 -34 8 3 12 2 8 -3 -12 -21 288 -103 495 -136 145 -23 601 -29 758 -10 231
29 410 71 566 134 386 155 508 367 323 563 -140 149 -425 262 -817 323 -144
22 -575 29 -730 11z"/>
<path d="M2411 6769 c-90 -18 -187 -96 -233 -188 l-23 -46 0 -1545 0 -1545 28
-57 c33 -67 89 -120 167 -157 l55 -26 2500 0 2500 0 57 28 c71 35 141 112 168
185 20 52 20 77 18 1585 l-3 1532 -24 50 c-40 81 -124 153 -208 179 l-23 7 0
-716 c0 -634 -2 -723 -16 -773 -50 -173 -223 -320 -506 -430 -257 -101 -574
-152 -938 -152 -285 0 -505 26 -730 85 -168 45 -354 121 -432 176 -15 11 -33
17 -39 13 -7 -4 -9 -3 -5 4 3 5 -9 20 -28 31 -46 29 -133 120 -168 176 -57 91
-58 104 -58 883 l0 712 -1007 -1 c-555 -1 -1028 -5 -1052 -10z m-101 -63 c0
-2 -7 -9 -15 -16 -13 -11 -14 -10 -9 4 5 14 24 23 24 12z m-129 -169 c-10 -9
-11 -8 -5 6 3 10 9 15 12 12 3 -3 0 -11 -7 -18z m846 -279 c28 -27 30 -67 3
-96 -20 -21 -27 -22 -249 -22 -190 0 -231 2 -241 15 -7 8 -16 13 -20 10 -4 -3
-7 3 -6 13 0 9 -5 16 -12 14 -8 -1 -11 2 -7 8 3 6 11 7 17 4 8 -5 9 -1 5 10
-4 11 2 26 18 42 l24 24 222 0 c215 0 224 -1 246 -22z m1153 2 c24 -24 26 -67
4 -98 l-15 -22 -410 0 c-366 0 -412 2 -427 16 -22 22 -20 78 3 104 18 20 28
20 422 20 390 0 404 -1 423 -20z m-590 -520 c26 -26 25 -45 -6 -160 -54 -204
-177 -659 -194 -725 -27 -101 -68 -128 -125 -84 -22 18 -26 28 -23 58 3 20 46
191 97 381 51 190 104 385 116 435 14 51 31 95 41 102 26 19 71 16 94 -7z
m-530 -60 c28 -28 26 -75 -4 -105 -13 -13 -22 -26 -20 -29 2 -3 1 -4 -3 -1 -3
3 -15 -2 -25 -11 -15 -14 -16 -20 -5 -33 11 -14 10 -14 -5 -2 -14 11 -21 11
-33 1 -8 -7 -12 -17 -8 -23 4 -6 1 -7 -6 -2 -14 8 -74 -43 -65 -56 2 -4 -1
-11 -7 -15 -8 -4 -9 -3 -5 4 12 20 -5 13 -39 -15 -18 -16 -63 -52 -99 -82 -54
-44 -64 -56 -54 -68 6 -8 17 -12 25 -9 8 3 12 2 9 -3 -3 -5 49 -53 116 -107
246 -200 248 -202 248 -237 0 -18 -7 -41 -15 -51 -21 -28 -78 -26 -109 3 -14
14 -30 20 -37 16 -7 -5 -10 -4 -5 3 8 14 -372 325 -386 316 -6 -4 -8 -3 -5 3
4 6 -2 18 -13 28 -12 11 -20 31 -20 51 0 38 21 60 145 157 44 34 97 78 117 98
21 20 38 35 38 32 0 -2 24 15 53 40 142 121 178 136 217 97z m836 -8 c16 -15
69 -58 116 -95 48 -37 92 -73 100 -80 66 -63 180 -147 190 -141 7 4 10 3 5 -1
-4 -5 7 -23 24 -41 24 -25 30 -39 27 -65 -3 -30 -17 -45 -114 -124 -61 -49
-168 -136 -236 -191 -146 -119 -159 -127 -193 -118 -30 8 -45 31 -45 73 0 27
17 45 146 153 81 68 170 141 199 163 28 22 53 44 54 48 4 14 -293 257 -307
252 -7 -3 -11 -1 -8 3 3 5 -15 25 -39 46 -38 31 -45 43 -45 73 0 73 68 98 126
45z m-196 -1372 c26 -26 25 -60 -1 -94 l-20 -26 -564 0 -564 0 -15 22 c-21 29
-20 77 1 100 15 17 46 18 580 18 550 0 563 0 583 -20z m760 0 c29 -29 26 -74
-6 -99 -25 -20 -39 -21 -241 -21 l-214 0 -26 26 c-20 20 -24 32 -19 56 11 55
20 57 264 58 209 0 223 -1 242 -20z m1100 0 c25 -25 26 -61 1 -91 -19 -24 -22
-24 -235 -27 -229 -3 -250 0 -266 44 -10 26 2 73 23 86 7 4 112 8 235 8 209 0
223 -1 242 -20z m1722 6 c10 -7 21 -27 24 -44 5 -24 1 -36 -19 -56 l-26 -26
-698 0 c-781 0 -743 -3 -743 67 0 20 7 45 17 55 15 17 51 18 722 18 571 -1
709 -3 723 -14z m-3888 -482 c27 -27 31 -63 9 -92 l-20 -27 -408 -3 c-353 -2
-411 0 -432 13 -12 9 -23 22 -23 31 0 8 -5 12 -10 9 -17 -10 12 49 33 68 18
16 53 17 427 17 358 0 411 -2 424 -16z m2276 -4 c26 -26 25 -68 -2 -97 l-21
-23 -958 0 c-897 0 -958 1 -977 18 -32 26 -37 63 -12 95 l21 27 965 0 c951 0
964 0 984 -20z m825 0 c27 -29 24 -78 -6 -101 -21 -17 -44 -19 -216 -19 -185
0 -193 1 -213 22 -26 28 -26 72 0 98 19 19 33 20 218 20 187 0 200 -1 217 -20z
m795 0 c26 -26 25 -68 -2 -97 -21 -22 -26 -23 -215 -23 -180 0 -194 1 -213 20
-28 28 -27 84 2 104 18 13 57 16 215 16 180 0 194 -1 213 -20z"/>
<path d="M4617 6318 c2 -131 8 -251 14 -273 42 -152 287 -304 626 -390 240
-60 442 -79 755 -72 251 5 412 25 595 71 303 77 537 211 611 351 27 50 27 51
30 298 2 177 0 247 -8 242 -5 -3 -7 -11 -4 -17 4 -6 2 -8 -4 -4 -6 3 -39 -15
-74 -41 -183 -139 -465 -233 -858 -288 -121 -17 -368 -23 -535 -14 -323 17
-542 60 -788 156 -48 18 -93 30 -99 27 -6 -4 -8 -3 -5 3 4 6 -7 17 -25 24 -36
15 -149 90 -196 131 -18 15 -34 28 -35 28 -1 0 -1 -105 0 -232z"/>
<path d="M4620 5558 c6 -285 7 -290 86 -372 52 -54 162 -128 177 -119 5 3 7 1
4 -4 -8 -13 120 -72 248 -113 225 -72 408 -99 711 -107 319 -8 559 16 797 81
244 67 450 176 535 283 65 84 67 90 70 313 2 113 2 225 0 248 l-3 44 -30 -26
c-192 -168 -568 -296 -989 -337 -179 -17 -587 -6 -754 20 -343 54 -625 158
-791 292 -34 27 -62 49 -64 49 -1 0 0 -114 3 -252z"/>
<path d="M4505 3038 c40 -128 48 -179 48 -303 0 -122 -15 -212 -48 -297 -7
-17 16 -18 395 -18 379 0 402 1 395 18 -32 81 -48 176 -48 292 -1 121 4 153
49 308 l6 22 -402 0 -402 0 7 -22z"/>
<path d="M3715 9650 c-16 -6 -14 -8 13 -7 17 0 32 4 32 9 0 10 -18 9 -45 -2z"/>
<path d="M3645 9633 c-37 -9 -37 -21 -1 -25 20 -2 36 0 36 4 0 4 -6 8 -12 8
-9 0 -8 4 2 10 16 10 9 11 -25 3z"/>
<path d="M3556 9605 c-15 -8 -36 -15 -45 -15 -9 0 -56 -12 -105 -27 -61 -19
-83 -29 -70 -33 11 -4 31 1 49 12 34 20 60 24 49 6 -4 -7 -3 -8 5 -4 6 4 8 12
5 18 -5 8 8 9 41 6 29 -4 42 -2 34 3 -9 5 12 7 51 5 54 -3 57 -2 20 4 l-45 7
50 3 c43 3 45 4 16 7 -26 3 -31 7 -20 14 23 15 -4 10 -35 -6z"/>
<path d="M3660 9541 c0 -5 -10 -7 -22 -5 -13 2 -17 2 -10 -2 6 -3 10 -10 6
-15 -3 -5 6 -9 20 -9 19 0 26 5 26 20 0 11 -4 20 -10 20 -5 0 -10 -4 -10 -9z"/>
<path d="M3212 9496 c-35 -13 -66 -27 -70 -31 -4 -4 0 -5 8 -2 8 3 39 13 67
22 29 9 55 21 58 26 8 11 12 12 -63 -15z"/>
<path d="M3298 9513 c6 -2 18 -2 25 0 6 3 1 5 -13 5 -14 0 -19 -2 -12 -5z"/>
<path d="M3350 9510 c-12 -8 -10 -10 8 -10 13 0 32 -5 44 -11 11 -6 22 -8 24
-6 4 4 -53 38 -60 37 -1 0 -8 -5 -16 -10z"/>
<path d="M3308 9493 c7 -3 16 -2 19 1 4 3 -2 6 -13 5 -11 0 -14 -3 -6 -6z"/>
<path d="M3522 9489 c2 -6 7 -10 11 -10 4 1 21 1 37 1 17 0 30 5 30 10 0 6
-18 10 -41 10 -25 0 -39 -4 -37 -11z"/>
<path d="M3348 9483 c7 -3 16 -2 19 1 4 3 -2 6 -13 5 -11 0 -14 -3 -6 -6z"/>
<path d="M3085 9445 c-25 -12 -26 -14 -5 -9 14 4 29 10 35 15 12 12 5 11 -30
-6z"/>
<path d="M3138 9413 c6 -2 18 -2 25 0 6 3 1 5 -13 5 -14 0 -19 -2 -12 -5z"/>
<path d="M2945 9380 c3 -5 8 -10 11 -10 2 0 4 5 4 10 0 6 -5 10 -11 10 -5 0
-7 -4 -4 -10z"/>
<path d="M2897 9366 c-16 -13 -16 -14 -1 -20 9 -4 19 -4 22 -1 3 3 -1 5 -8 5
-9 0 -7 5 6 15 10 8 15 14 9 14 -5 0 -18 -6 -28 -13z"/>
<path d="M2840 9340 c-8 -5 -10 -10 -5 -10 6 0 17 5 25 10 8 5 11 10 5 10 -5
0 -17 -5 -25 -10z"/>
<path d="M2730 9285 c-14 -8 -20 -14 -15 -14 6 0 21 6 35 14 14 8 21 14 15 14
-5 0 -21 -6 -35 -14z"/>
<path d="M2669 9253 c-13 -17 -13 -17 6 -3 11 8 22 16 24 17 2 2 0 3 -6 3 -6
0 -17 -8 -24 -17z"/>
<path d="M2587 9216 c-31 -18 -63 -38 -70 -46 -7 -8 0 -6 16 4 30 19 83 13 56
-6 -11 -8 -10 -8 4 -4 10 3 22 6 25 6 4 1 -4 7 -17 14 l-25 14 32 16 c17 9 34
20 37 26 8 12 11 14 -58 -24z"/>
<path d="M2427 9122 c-3 -4 7 -16 22 -25 23 -13 28 -14 28 -2 0 8 -5 11 -10 8
-6 -3 -16 2 -23 11 -6 9 -15 13 -17 8z"/>
<path d="M2350 9075 c-7 -8 -18 -15 -25 -15 -7 0 -23 -9 -36 -20 -23 -20 -23
-20 18 0 36 19 75 50 60 50 -2 0 -10 -7 -17 -15z"/>
<path d="M2306 9024 c-11 -8 -16 -14 -10 -14 13 0 39 18 34 24 -3 2 -14 -2
-24 -10z"/>
<path d="M2187 8973 c-3 -5 6 -9 20 -10 19 -1 22 1 12 8 -17 11 -26 11 -32 2z"/>
<path d="M2126 8932 c-2 -4 4 -8 14 -8 10 0 16 4 14 8 -3 4 -9 8 -14 8 -5 0
-11 -4 -14 -8z"/>
<path d="M2025 8860 c-3 -5 -2 -10 4 -10 5 0 13 5 16 10 3 6 2 10 -4 10 -5 0
-13 -4 -16 -10z"/>
<path d="M1949 8803 c-13 -16 -12 -17 4 -4 16 13 21 21 13 21 -2 0 -10 -8 -17
-17z"/>
<path d="M1901 8770 c-13 -11 -19 -20 -14 -20 6 0 18 9 28 20 23 25 17 25 -14
0z"/>
<path d="M1804 8688 c-16 -18 -19 -24 -7 -14 12 10 26 16 30 13 5 -3 9 3 9 14
0 10 -1 19 -1 19 -1 0 -14 -15 -31 -32z"/>
<path d="M1750 8641 c0 -6 4 -13 10 -16 6 -3 7 1 4 9 -7 18 -14 21 -14 7z"/>
<path d="M1661 8566 c-9 -11 -9 -16 1 -22 7 -4 10 -4 6 1 -4 4 -3 14 3 22 6 7
9 13 6 13 -2 0 -10 -6 -16 -14z"/>
<path d="M1545 8461 c-3 -5 -2 -12 3 -15 5 -3 9 1 9 9 0 17 -3 19 -12 6z"/>
<path d="M1463 8386 c-19 -20 -20 -22 -2 -22 10 0 16 2 14 5 -3 2 0 10 7 18
19 23 4 23 -19 -1z"/>
<path d="M1420 8341 c0 -6 4 -13 10 -16 6 -3 7 1 4 9 -7 18 -14 21 -14 7z"/>
<path d="M1395 8320 c-3 -5 -1 -10 4 -10 6 0 11 5 11 10 0 6 -2 10 -4 10 -3 0
-8 -4 -11 -10z"/>
<path d="M1321 8236 c-17 -19 -20 -26 -9 -32 7 -4 10 -3 5 1 -4 5 3 19 15 32
12 13 19 23 16 23 -2 0 -15 -11 -27 -24z"/>
<path d="M1145 8039 c-4 -6 -5 -12 -2 -15 2 -3 7 2 10 11 7 17 1 20 -8 4z"/>
<path d="M1097 7982 c-20 -22 -23 -39 -4 -23 8 6 16 9 18 6 3 -2 5 5 5 15 0
24 1 24 -19 2z"/>
<path d="M1056 7925 c-9 -26 -7 -32 5 -12 6 10 9 21 6 23 -2 3 -7 -2 -11 -11z"/>
<path d="M1021 7860 c14 -31 19 -36 19 -24 0 6 -7 19 -16 30 -14 18 -14 18 -3
-6z"/>
<path d="M951 7793 c-24 -35 -25 -40 -7 -18 15 17 30 29 34 28 4 -1 8 7 8 18
0 10 -1 19 -1 19 -1 0 -16 -21 -34 -47z"/>
<path d="M1004 7829 c-3 -6 -2 -15 3 -20 5 -5 9 -1 9 11 0 23 -2 24 -12 9z"/>
<path d="M906 7725 c-9 -26 -7 -32 5 -12 6 10 9 21 6 23 -2 3 -7 -2 -11 -11z"/>
<path d="M854 7653 c-13 -20 -13 -25 -2 -16 8 7 17 11 19 8 3 -2 5 5 5 15 0
25 0 25 -22 -7z"/>
<path d="M855 7620 c-4 -6 -10 -8 -15 -5 -5 3 -12 0 -16 -6 -5 -8 -3 -9 6 -4
10 6 12 4 7 -9 -9 -22 10 -11 23 15 11 19 6 27 -5 9z"/>
<path d="M863 7587 c-8 -17 -8 -24 0 -24 7 0 13 11 13 24 2 29 0 29 -13 0z"/>
<path d="M797 7572 c-12 -13 -13 -22 -6 -32 9 -13 10 -13 6 0 -2 8 2 23 11 33
20 22 10 22 -11 -1z"/>
<path d="M757 7511 c-9 -16 -17 -33 -17 -38 1 -4 8 5 16 21 13 22 18 26 25 15
5 -8 9 -9 9 -4 0 30 -17 33 -33 6z"/>
<path d="M765 7480 c-3 -5 -1 -10 4 -10 6 0 11 5 11 10 0 6 -2 10 -4 10 -3 0
-8 -4 -11 -10z"/>
<path d="M716 7444 c-5 -14 -4 -15 9 -4 17 14 19 20 6 20 -5 0 -12 -7 -15 -16z"/>
<path d="M654 7332 c4 -3 14 -7 22 -8 9 -1 13 0 10 4 -4 3 -14 7 -22 8 -9 1
-13 0 -10 -4z"/>
<path d="M601 7247 c-13 -21 -12 -21 5 -5 10 10 16 20 13 22 -3 3 -11 -5 -18
-17z"/>
<path d="M566 7173 c-6 -14 -5 -15 5 -6 7 7 10 15 7 18 -3 3 -9 -2 -12 -12z"/>
<path d="M536 7125 c-9 -26 -7 -32 5 -12 6 10 9 21 6 23 -2 3 -7 -2 -11 -11z"/>
<path d="M509 7064 c-5 -15 -8 -29 -5 -31 2 -2 8 10 14 26 13 38 5 41 -9 5z"/>
<path d="M462 6971 c-6 -17 -9 -31 -6 -31 7 0 25 52 20 57 -2 2 -8 -10 -14
-26z"/>
<path d="M445 6919 c-4 -6 -5 -12 -2 -15 2 -3 7 2 10 11 7 17 1 20 -8 4z"/>
<path d="M376 6774 c-3 -9 -1 -23 4 -32 9 -14 10 -12 4 7 -4 16 -3 21 5 17 7
-5 9 -1 5 8 -8 20 -10 20 -18 0z"/>
<path d="M356 6723 c-3 -3 -6 -11 -6 -17 0 -6 5 -4 10 4 8 13 10 13 10 -2 0
-9 4 -19 9 -22 5 -4 7 3 4 14 -6 23 -17 33 -27 23z"/>
<path d="M331 6663 c-1 -6 -4 -20 -7 -30 -5 -17 -5 -17 6 0 6 10 9 23 6 30 -3
9 -5 9 -5 0z"/>
<path d="M382 6650 c0 -14 2 -19 5 -12 2 6 2 18 0 25 -3 6 -5 1 -5 -13z"/>
<path d="M307 6603 c-10 -10 -8 -33 2 -33 6 0 9 9 8 20 -1 23 -1 22 -10 13z"/>
<path d="M287 6539 c-4 -16 -3 -18 9 -8 7 6 11 15 8 20 -8 13 -11 11 -17 -12z"/>
<path d="M298 6492 c-3 -12 -2 -22 3 -22 5 0 9 -7 9 -15 0 -8 -6 -13 -12 -11
-7 1 -10 1 -5 -1 4 -3 5 -9 1 -14 -3 -5 -1 -9 5 -9 15 0 22 32 13 65 -8 28 -9
28 -14 7z"/>
<path d="M256 6437 c3 -10 9 -15 12 -12 3 3 0 11 -7 18 -10 9 -11 8 -5 -6z"/>
<path d="M237 6398 c-8 -29 -4 -32 11 -8 6 10 8 21 3 24 -5 3 -11 -4 -14 -16z"/>
<path d="M239 6357 c-8 -7 -18 -20 -22 -29 -8 -22 7 -66 17 -50 3 6 2 13 -3
17 -6 3 -2 20 9 40 22 39 22 40 -1 22z"/>
<path d="M205 6267 c4 -20 2 -27 -6 -22 -8 5 -9 0 -4 -16 4 -13 4 -21 -1 -16
-8 8 -38 -92 -29 -101 3 -3 5 0 5 7 0 7 5 9 10 6 6 -4 10 11 11 37 1 36 2 39
9 18 7 -22 8 -21 7 11 0 20 3 41 6 47 4 5 2 21 -3 34 -10 21 -10 21 -5 -5z"/>
<path d="M231 6253 c-1 -6 -4 -20 -7 -30 -5 -17 -5 -17 6 0 6 10 9 23 6 30 -3
9 -5 9 -5 0z"/>
<path d="M220 6180 c0 -11 2 -20 4 -20 2 0 6 9 9 20 3 11 1 20 -4 20 -5 0 -9
-9 -9 -20z"/>
<path d="M206 6135 c-3 -8 -1 -15 4 -15 6 0 10 7 10 15 0 8 -2 15 -4 15 -2 0
-6 -7 -10 -15z"/>
<path d="M146 6078 c-7 -29 -8 -73 0 -66 6 6 15 88 10 88 -2 0 -6 -10 -10 -22z"/>
<path d="M120 5965 c0 -11 -3 -30 -6 -42 -4 -14 -2 -23 5 -23 6 0 12 10 12 23
1 18 3 17 10 -8 7 -27 8 -26 4 9 -5 42 -25 75 -25 41z"/>
<path d="M96 5851 c-3 -22 -3 -47 0 -55 3 -9 1 -16 -5 -16 -16 0 -13 -36 4
-50 21 -18 29 -6 13 19 -11 18 -11 23 1 30 8 5 15 21 17 35 1 14 5 35 9 46 4
11 2 20 -4 20 -6 0 -11 -13 -11 -29 0 -17 -5 -33 -10 -36 -7 -4 -8 8 -4 34 4
23 4 41 2 41 -3 0 -8 -18 -12 -39z"/>
<path d="M12 5105 c0 -16 2 -22 5 -12 2 9 2 23 0 30 -3 6 -5 -1 -5 -18z"/>
</g>
</svg>
